<svg width="512" height="512" viewBox="0 0 512 512" fill="none" xmlns="http://www.w3.org/2000/svg">
  <defs>
    <linearGradient id="cardGradient" x1="96" y1="76" x2="420" y2="428" gradientUnits="userSpaceOnUse">
      <stop stop-color="#6ADE95"/>
      <stop offset="1" stop-color="#20C9DA"/>
    </linearGradient>
    <linearGradient id="glassHighlight" x1="142" y1="118" x2="244" y2="224" gradientUnits="userSpaceOnUse">
      <stop stop-color="white" stop-opacity="0.42"/>
      <stop offset="1" stop-color="white" stop-opacity="0.14"/>
    </linearGradient>
    <linearGradient id="trayGradient" x1="181" y1="338" x2="181" y2="390" gradientUnits="userSpaceOnUse">
      <stop stop-color="white" stop-opacity="0.30"/>
      <stop offset="1" stop-color="white" stop-opacity="0.14"/>
    </linearGradient>
    <filter id="cardShadow" x="64" y="62" width="384" height="392" filterUnits="userSpaceOnUse" color-interpolation-filters="sRGB">
      <feFlood flood-opacity="0" result="BackgroundImageFix"/>
      <feColorMatrix in="SourceAlpha" type="matrix" values="0 0 0 0 0 0 0 0 0 0 0 0 0 0 0 0 0 0 127 0" result="hardAlpha"/>
      <feOffset dy="18"/>
      <feGaussianBlur stdDeviation="20"/>
      <feColorMatrix type="matrix" values="0 0 0 0 0.215686 0 0 0 0 0.541176 0 0 0 0 0.411765 0 0 0 0.22 0"/>
      <feBlend mode="normal" in2="BackgroundImageFix" result="effect1_dropShadow_1_1"/>
      <feBlend mode="normal" in="SourceGraphic" in2="effect1_dropShadow_1_1" result="shape"/>
    </filter>
  </defs>

  <g filter="url(#cardShadow)">
    <rect x="96" y="80" width="320" height="320" rx="78" fill="url(#cardGradient)"/>
    <rect x="96.75" y="80.75" width="318.5" height="318.5" rx="77.25" stroke="white" stroke-opacity="0.58" stroke-width="1.5"/>
  </g>

  <rect x="140" y="116" width="118" height="108" rx="32" fill="url(#glassHighlight)"/>

  <rect x="173" y="155" width="42" height="130" rx="21" fill="white"/>
  <rect x="235" y="122" width="42" height="163" rx="21" fill="white"/>
  <rect x="297" y="180" width="42" height="105" rx="21" fill="white" fill-opacity="0.96"/>

  <rect x="156" y="318" width="200" height="50" rx="22" fill="url(#trayGradient)"/>
  <rect x="206" y="338" width="16" height="18" rx="8" fill="white" fill-opacity="0.22"/>
  <rect x="248" y="330" width="16" height="26" rx="8" fill="white" fill-opacity="0.22"/>
  <rect x="290" y="342" width="16" height="14" rx="7" fill="white" fill-opacity="0.22"/>
</svg>
